<svg id="Capa_1" enable-background="new 0 0 512 512" height="512" viewBox="0 0 512 512" width="512" xmlns="http://www.w3.org/2000/svg"><g><g><path d="m295.698 122.315h71.229 6.503v-82.826h-6.503l-89.599-24.65c-13.54-3.725-27.988-2.182-40.436 4.318l-60.643 31.666c-13.163 6.873-21.416 20.493-21.416 35.342v17.676c0 10.203 8.271 18.474 18.474 18.474h47.425z" fill="#ffdad5"/></g><g><path d="m348.439 349.524v20.913l-42.431 29.914h-9.001c0-25.216-20.438-45.654-45.654-45.654h-68.698c-15.861 0-31.238 4.536-44.411 12.851v-18.023c0-38.087 3.617-76.073 10.79-113.291 3.091-16.073 5.516-32.278 7.284-48.584 38.754-15.043 86.792-14.679 86.792-14.679s48.462-.374 87.317 15.245c1.758 16.114 4.173 32.127 7.224 48.018 7.172 37.217 10.788 75.203 10.788 113.29z" fill="#ffa76b"/></g><g><path d="m341.569 193.316c-39.986-20.801-98.459-20.347-98.459-20.347s-59.908-.455-99.903 20.609l16.213-71.264h169.21z" fill="#ffd88e"/></g><g><path d="m407.682 374.548c0 7.415-3.435 14.76-10.032 19.438l-71.597 50.816c-7.405 5.263-16.265 8.082-25.348 8.082h-135.649l-61.374-51.978 17.639-19.235c15.76-17.185 38.016-26.974 61.333-26.974h68.698c25.216 0 45.654 20.438 45.654 45.654h9.001l64.152-45.23c9.789-6.91 23.196-5.455 31.288 3.395 4.194 4.586 6.235 10.334 6.235 16.032z" fill="#ffdad5"/></g><g><path d="m87.607 387.302 95.737 81.062-27.725 30.801h-145.619v-33.681z" fill="#a0c8ff"/></g><g><path d="m373.431 18.226h128.569v123.477h-128.569z" fill="#ff7a7a"/></g><g><path d="m194.34 295.766c0-26.691 21.638-48.329 48.329-48.329s48.329 21.638 48.329 48.329z" fill="#f9f5f3"/></g><g><path d="m502 8.226h-128.569c-5.522 0-10 4.477-10 10v9.929l-83.451-22.958c-16.03-4.411-32.979-2.601-47.717 5.095l-60.643 31.666c-16.522 8.628-26.786 25.566-26.786 44.207v17.676c0 5.915 1.814 11.414 4.914 15.971-.025.095-.056.188-.078.285l-16.214 71.264c-.866 3.808.563 7.771 3.66 10.149 1.783 1.37 3.931 2.069 6.092 2.069.359 0 .719-.026 1.078-.064-1.427 10.36-3.12 20.677-5.072 30.826-7.279 37.772-10.971 76.525-10.971 115.184v12.719c-5.151 3.697-9.949 7.933-14.292 12.669l-11.146 12.155-8.735-7.396c-3.98-3.37-9.884-3.115-13.559.587l-77.608 78.18c-1.859 1.873-2.903 4.406-2.903 7.045v33.68c0 5.523 4.478 10 10 10h145.619c2.835 0 5.536-1.203 7.433-3.31l27.725-30.801c1.81-2.01 2.728-4.667 2.545-7.366-.118-1.73-.686-3.379-1.619-4.803h109.002c11.232 0 22.001-3.434 31.136-9.927l71.594-50.814c16.327-11.577 18.902-35.598 5.395-50.376-11.464-12.534-30.565-14.606-44.43-4.818l-5.959 4.201v-1.626c0-38.658-3.691-77.412-10.97-115.176-1.974-10.283-3.678-20.679-5.104-31.065 1.825-.146 3.61-.791 5.142-1.92 3.071-2.267 4.585-6.084 3.9-9.84l-10.79-59.208h22.813v9.389c0 5.523 4.478 10 10 10h39.336c5.522 0 10-4.477 10-10s-4.478-10-10-10h-29.336v-103.478h108.568v113.477c0 5.523 4.478 10 10 10s10-4.477 10-10v-123.477c0-5.523-4.478-10-10-10zm-350.834 480.938h-131.166v-19.56l68.196-68.701 80.819 68.431zm224.762-125.874c5.66-3.996 13.458-3.147 18.139 1.971 5.524 6.044 4.461 15.843-2.205 20.569l-71.604 50.82c-5.736 4.078-12.498 6.233-19.554 6.233h-131.977l-50.644-42.886 10.608-11.568c13.742-14.984 33.628-23.733 53.963-23.733h68.698c16.188 0 29.882 10.848 34.217 25.654h-71.556c-5.522 0-10 4.477-10 10s4.478 10 10 10h82.993c4.65 0 10.754 1 14.763-1.827l42.432-29.914c.006-.004.011-.01.017-.014zm-70.228 25.042c-5.508-24.931-27.784-43.635-54.348-43.635h-68.698c-11.729 0-23.51 2.25-34.411 6.586v-1.759c0-37.391 3.569-74.871 10.61-111.403 2.728-14.191 4.978-28.69 6.7-43.191 24.594-8.4 51.662-11.961 77.634-11.961.589 0 42.588-.099 77.997 12.45 1.702 14.239 3.932 28.575 6.645 42.706 7.04 36.527 10.609 74.007 10.609 111.398v15.726zm22.685-211.585c-26.915-9.641-56.713-14.059-85.277-13.777-28.696-.263-58.734 4.065-85.786 13.644l10.079-44.299h5.906 146.98zm-94.576-64.432c-7.073 0-12.827-5.755-12.827-12.828s5.754-12.828 12.827-12.828h59.346c5.522 0 10-4.477 10-10s-4.478-10-10-10h-59.346c-18.101 0-32.827 14.727-32.827 32.828 0 4.549.932 8.885 2.612 12.828h-30.286c-4.673 0-8.474-3.801-8.474-8.474v-17.677c0-11.165 6.147-21.311 16.044-26.478l60.644-31.666c10.152-5.302 22.111-6.577 33.154-3.541l88.755 24.418v63.417h-129.622z"/><path d="m303.698 285.766h-3.575c-4.194-24.161-23.293-43.26-47.454-47.454v-7.258c0-5.523-4.478-10-10-10s-10 4.477-10 10v7.258c-24.161 4.194-43.26 23.293-47.455 47.454h-3.575c-5.522 0-10 4.477-10 10s4.478 10 10 10h122.058c5.522 0 10-4.477 10-10s-4.476-10-9.999-10zm-98.035 0c4.409-16.301 19.33-28.329 37.007-28.329s32.597 12.028 37.006 28.329z"/><path d="m466.939 137.876c-2.097-5.031-8.021-7.49-13.06-5.41-5.036 2.08-7.493 8.031-5.41 13.06 2.085 5.037 8.023 7.496 13.061 5.41 5.048-2.09 7.474-8.02 5.409-13.06z"/></g></g></svg>