<svg height="512" viewBox="0 0 64 64" width="512" xmlns="http://www.w3.org/2000/svg"><g id="Store"><path d="m39 17v-4h-14v4z" fill="#c0ab91"/><path d="m61 21v40h-58v-40l29-18z" fill="#c0ab91"/><path d="m61 21v40h-4v-40l-27-16.76 2-1.24z" fill="#a78966"/><path d="m7 23h50v4h-50z" fill="#00d7df"/><path d="m53 23h4v4h-4z" fill="#00b6bd"/><path d="m7 27h50v34h-50z" fill="#e0e0e2"/><path d="m53 27h4v34h-4z" fill="#c6c5ca"/><rect fill="#ffde55" height="4" rx="2" width="14" x="25" y="13"/><path d="m41 17a2.006 2.006 0 0 1 -2 2h-10a2.006 2.006 0 0 1 -2-2h10a2.006 2.006 0 0 0 2-2 2.006 2.006 0 0 1 2 2z" fill="#a78966"/><path d="m39 15a2.006 2.006 0 0 1 -2 2h-3a2 2 0 0 0 0-4h3a2.006 2.006 0 0 1 2 2z" fill="#ebbf00"/><path d="m30 33h4v4h-4z" fill="#c6c5ca"/><path d="m53 46v2a8 8 0 0 1 -8 8v-2a8 8 0 0 1 8-8z" fill="#ccfc5c"/><path d="m49 38c0 3.31-1.79 6-4 6s-4-2.69-4-6 4-6 4-6 4 2.69 4 6z" fill="#ccfc5c"/><path d="m53 46v2a8 8 0 0 1 -8 8v-.58a8.008 8.008 0 0 0 5-7.42v-1.42a8.093 8.093 0 0 1 3-.58z" fill="#a4e276"/><path d="m49 37.83c0 3.32-1.79 6-4 6a3.709 3.709 0 0 1 -3.12-2.24 2.718 2.718 0 0 0 1.12.24c2.21 0 4-2.68 4-6a6.032 6.032 0 0 0 -1.42-3.57c1.11.9 3.42 3.06 3.42 5.57z" fill="#a4e276"/><g fill="#ccfc5c"><path d="m40 45v2a8 8 0 0 1 -8 8v-2a8 8 0 0 1 8-8z"/><path d="m36 37c0 3.31-1.79 6-4 6s-4-2.69-4-6 4-6 4-6 4 2.69 4 6z"/><path d="m32 53v2a8 8 0 0 1 -8-8v-2a8 8 0 0 1 8 8z"/></g><path d="m40 45v2a8 8 0 0 1 -8 8v-.58a8.008 8.008 0 0 0 5-7.42v-1.42a8.093 8.093 0 0 1 3-.58z" fill="#a4e276"/><path d="m36 36.83c0 3.32-1.79 6-4 6a3.709 3.709 0 0 1 -3.12-2.24 2.718 2.718 0 0 0 1.12.24c2.21 0 4-2.68 4-6a6.032 6.032 0 0 0 -1.42-3.57c1.11.9 3.42 3.06 3.42 5.57z" fill="#a4e276"/><path d="m32 53v2a8.093 8.093 0 0 1 -3-.58v-1.42a8.008 8.008 0 0 0 -5-7.42v-.58a8 8 0 0 1 8 8z" fill="#a4e276"/><path d="m23 38c0 3.31-1.79 6-4 6s-4-2.69-4-6 4-6 4-6 4 2.69 4 6z" fill="#ccfc5c"/><path d="m19 54v2a8 8 0 0 1 -8-8v-2a8 8 0 0 1 8 8z" fill="#ccfc5c"/><path d="m23 37.83c0 3.32-1.79 6-4 6a3.709 3.709 0 0 1 -3.12-2.24 2.718 2.718 0 0 0 1.12.24c2.21 0 4-2.68 4-6a6.032 6.032 0 0 0 -1.42-3.57c1.11.9 3.42 3.06 3.42 5.57z" fill="#a4e276"/><path d="m19 54v2a8.093 8.093 0 0 1 -3-.58v-1.42a8.008 8.008 0 0 0 -5-7.42v-.58a8 8 0 0 1 8 8z" fill="#a4e276"/><path d="m61.53 20.15-29-18a1.011 1.011 0 0 0 -1.06 0l-29 18a1 1 0 0 0 -.47.85v40a1 1 0 0 0 1 1h58a1 1 0 0 0 1-1v-40a1 1 0 0 0 -.47-.85zm-43.53 34.78a7.013 7.013 0 0 1 -6-6.93v-.93a7.013 7.013 0 0 1 6 6.93zm13-1a7.013 7.013 0 0 1 -6-6.93v-.93a7.013 7.013 0 0 1 6 6.93zm1-11.93c-1.63 0-3-2.29-3-5 0-2.06 2-3.94 3-4.75 1 .81 3 2.69 3 4.75 0 2.71-1.37 5-3 5zm1 11a7.013 7.013 0 0 1 6-6.93v.93a7.013 7.013 0 0 1 -6 6.93zm12-10c-1.63 0-3-2.29-3-5 0-2.06 2-3.94 3-4.75 1 .81 3 2.69 3 4.75 0 2.71-1.37 5-3 5zm1 11a7.013 7.013 0 0 1 6-6.93v.93a7.013 7.013 0 0 1 -6 6.93zm10 6h-10v-3.06a9.016 9.016 0 0 0 8-8.94v-2a1 1 0 0 0 -1-1 8.96 8.96 0 0 0 -7 3.36v-3.5c2.31-.63 4-3.42 4-6.86 0-3.8-4.26-6.71-4.44-6.83a1 1 0 0 0 -1.12 0c-.18.12-4.44 3.03-4.44 6.83 0 3.44 1.69 6.23 4 6.86v15.14h-11v-4.06a9.016 9.016 0 0 0 8-8.94v-2a1 1 0 0 0 -1-1 8.96 8.96 0 0 0 -7 3.36v-3.5c2.31-.63 4-3.42 4-6.86 0-3.8-4.26-6.71-4.44-6.83a1 1 0 0 0 -1.12 0c-.18.12-4.44 3.03-4.44 6.83 0 3.44 1.69 6.23 4 6.86v3.5a8.96 8.96 0 0 0 -7-3.36 1 1 0 0 0 -1 1v2a9.016 9.016 0 0 0 8 8.94v4.06h-11v-15.14c2.31-.63 4-3.42 4-6.86 0-3.8-4.26-6.71-4.44-6.83a1 1 0 0 0 -1.12 0c-.18.12-4.44 3.03-4.44 6.83 0 3.44 1.69 6.23 4 6.86v3.5a8.96 8.96 0 0 0 -7-3.36 1 1 0 0 0 -1 1v2a9.016 9.016 0 0 0 8 8.94v3.06h-10v-32h48zm-37-17c-1.63 0-3-2.29-3-5 0-2.06 2-3.94 3-4.75 1 .81 3 2.69 3 4.75 0 2.71-1.37 5-3 5zm37-17h-48v-2h48zm4 34h-2v-37a1 1 0 0 0 -1-1h-50a1 1 0 0 0 -1 1v37h-2v-38.44l28-17.38 28 17.38z"/><path d="m24 15a3 3 0 0 0 3 3h10a3 3 0 0 0 0-6h-10a3 3 0 0 0 -3 3zm14 0a1 1 0 0 1 -1 1h-10a1 1 0 0 1 0-2h10a1 1 0 0 1 1 1z"/></g></svg>