<svg height="512pt" viewBox="-79 0 512 512.00073" width="512pt" xmlns="http://www.w3.org/2000/svg"><path d="m162.003906 150.863281-33.632812-76.792969-11.453125-26.152343-5.859375-13.386719c-9.992188-22.8125-36.578125-33.203125-59.386719-23.214844l-17.132813 7.503906c-22.8125 9.988282-33.207031 36.578126-23.214843 59.386719l54.777343 125.089844c7.953126 7.542969 13.929688 17.148437 29.140626 17.148437 25.046874 0 25.046874-26.050781 50.09375-26.050781 2.699218 0 5.097656.3125 7.277343.855469-.3125-2.105469-.480469-4.257812-.480469-6.453125 0-10.453125 3.703126-24.9375 9.871094-37.933594zm0 0" fill="#bf7b4c"/><path d="m162.003906 150.863281-33.632812-76.792969-11.453125-26.152343-5.859375-13.386719c-9.992188-22.8125-36.578125-33.203125-59.386719-23.214844l-17.132813 7.503906c-17.269531 7.5625-27.414062 24.640626-26.992187 42.386719 4.085937-4.40625 9.113281-8.066406 14.96875-10.632812l17.132813-7.5c22.808593-9.988281 49.398437.402343 59.386718 23.214843l5.859375 13.386719 11.453125 26.148438 33.632813 76.796875c-1.824219 3.84375-3.425781 7.816406-4.785157 11.777344.046876 0 .089844-.007813.140626-.007813 2.699218 0 5.097656.316406 7.277343.855469-.3125-2.105469-.480469-4.257813-.480469-6.449219 0-10.453125 3.703126-24.9375 9.871094-37.933594zm0 0" fill="#a86c43"/><path d="m332.421875 136.296875-10.214844 10.214844c-9.03125 9.03125-23.675781 9.03125-32.707031 0l-10.214844-10.214844 10.214844-10.214844c9.03125-9.03125 23.675781-9.03125 32.707031 0zm0 0" fill="#74c26c"/><path d="m195.433594 220.445312c22.351562 0 24.769531-20.734374 42.832031-25.199218.316406-2.101563.480469-4.253906.480469-6.449219 0-23.917969-19.386719-68.945313-43.304688-68.945313-23.917968 0-43.308594 45.027344-43.308594 68.945313 0 2.195313.167969 4.347656.484376 6.453125 18.042968 4.472656 20.46875 25.195312 42.816406 25.195312zm0 0" fill="#f7e29c"/><path d="m195.441406 119.851562c-10.203125 0-19.578125 8.191407-26.976562 19.441407 2.644531-1.121094 5.371094-1.742188 8.164062-1.742188 23.917969 0 43.304688 45.03125 43.304688 68.949219 0 .511719-.011719 1.023438-.027344 1.53125 5.117188-5.304688 10.105469-10.746094 18.359375-12.785156.3125-2.105469.480469-4.257813.480469-6.449219 0-23.917969-19.390625-68.945313-43.304688-68.945313zm0 0" fill="#dbc98b"/><path d="m320.722656 147.851562c-9.085937 7.652344-22.667968 7.214844-31.222656-1.339843l-10.214844-10.214844 5.382813-5.382813c-1.257813-.085937-2.523438-.144531-3.800781-.144531-20.851563 0-38.996094 11.585938-48.351563 28.671875 3.953125 10.492188 6.230469 21.164063 6.230469 29.355469 0 2.1875-.164063 4.339844-.476563 6.441406 2.171875-.539062 4.566407-.84375 7.257813-.84375 25.050781 0 25.050781 26.050781 50.101562 26.050781 20.695313 0 24.292969-17.777343 39.039063-23.960937.089843-.039063.183593-.058594.273437-.09375.660156-3.410156 1.015625-6.925781 1.015625-10.53125 0-14.742187-5.800781-28.121094-15.234375-38.007813zm0 0" fill="#f94530"/><path d="m320.722656 147.851562c-9.085937 7.652344-22.667968 7.214844-31.222656-1.339843l-.480469 1.339843c9.429688 9.886719 15.234375 23.265626 15.234375 38.007813v.109375c-.011718 6.210938-2.839844 12.082031-7.53125 16.148438-5.097656 4.421874-12.109375 10.316406-16.941406 13.605468 4.109375 2.796875 9.054688 4.722656 15.847656 4.722656 20.695313 0 24.292969-17.773437 39.039063-23.960937.089843-.039063.183593-.058594.273437-.09375.660156-3.410156 1.015625-6.925781 1.015625-10.53125 0-14.742187-5.800781-28.121094-15.234375-38.007813zm0 0" fill="#db3d2a"/><path d="m232.515625 159.441406c9.355469-17.085937 27.5-28.671875 48.351563-28.671875.835937 0 1.660156.03125 2.484374.070313-4.046874-24.636719-21.5-59.085938-42.421874-59.085938-18.140626 0-33.671876 25.902344-40.117188 48.851563 13.492188 3.769531 25.0625 21.136719 31.761719 38.992187-.019531-.050781-.039063-.105468-.058594-.15625zm0 0" fill="#f7e29c"/><path d="m240.929688 71.753906c-7.347657 0-14.269532 4.25-20.332032 10.835938 1.089844-.1875 2.1875-.289063 3.300782-.289063 18.6875 0 34.605468 27.492188 40.671874 50.925781 5.152344-1.59375 10.621094-2.457031 16.296876-2.457031.832031 0 1.660156.03125 2.484374.070313-4.046874-24.636719-21.5-59.085938-42.421874-59.085938zm0 0" fill="#dbc98b"/><path d="m334.667969 196.484375c-14.746094 6.183594-18.34375 23.960937-39.039063 23.960937-25.050781 0-25.050781-26.050781-50.101562-26.050781-25.046875 0-25.046875 26.050781-50.097656 26.050781-25.046876 0-25.046876-26.050781-50.09375-26.050781-25.046876 0-25.046876 26.050781-50.09375 26.050781-20.691407 0-24.289063-17.773437-39.03125-23.960937-5.253907-2.203125-11.0625 1.609375-11.0625 7.304687v270.882813c0 16.464844 13.34375 29.808594 29.808593 29.808594h240.96875c16.460938 0 29.804688-13.34375 29.804688-29.808594v-270.882813c0-5.699218-5.808594-9.507812-11.0625-7.304687zm0 0" fill="#ff940c"/><path d="m334.667969 196.484375c-9.039063 3.789063-13.890625 11.9375-21.058594 17.675781v228.390625c0 16.460938-13.347656 29.808594-29.808594 29.808594h-238.652343v2.3125c0 16.464844 13.34375 29.808594 29.808593 29.808594h240.96875c16.460938 0 29.804688-13.34375 29.804688-29.808594v-270.882813c0-5.699218-5.808594-9.507812-11.0625-7.304687zm0 0" fill="#e8870b"/><path d="m343.371094 189.394531c.84375-14.835937-3.558594-29.253906-12.386719-41.019531l6.757813-6.757812c2.9375-2.9375 2.9375-7.691407 0-10.628907l-10.210938-10.214843c-8.617188-8.613282-21.121094-11.011719-31.90625-7.207032.667969-.742187 1.371094-1.476562 2.136719-2.191406 3.035156-2.832031 3.203125-7.585938.371093-10.621094-2.828124-3.035156-7.582031-3.203125-10.621093-.375-1.484375 1.386719-2.828125 2.804688-4.058594 4.246094-24.519531-58.902344-68.195313-50.644531-87.933594 7.714844-13.730469-.066406-24.953125 10.433594-32.664062 21.722656l-27.59375-63.003906c-1.664063-3.800782-6.09375-5.535156-9.898438-3.867188-3.800781 1.664063-5.53125 6.09375-3.867187 9.898438l32.238281 73.613281c-6.050781 13.800781-8.757813 27.035156-9.074219 36.183594-27.539062.433593-29.558594 26.046875-49.410156 26.046875-11.03125 0-15.046875-6.3125-22.851562-14.003906l-8.191407-18.707032c11.652344-10.28125 25.152344-15.59375 41.128907-16.175781 4.148437-.152344 7.386718-3.636719 7.234374-7.785156-.152343-4.148438-3.621093-7.378907-7.785156-7.234375-17.703125.648437-33.410156 6.324218-46.851562 16.875l-9.792969-22.363282c11.65625-10.277343 25.15625-15.589843 41.128906-16.175781 4.148438-.148437 7.390625-3.636719 7.238281-7.78125-.152343-4.148437-3.628906-7.394531-7.785156-7.238281-17.703125.648438-33.414062 6.328125-46.851562 16.875l-9.792969-22.359375c11.652344-10.277344 25.152344-15.589844 41.128906-16.175781 4.148438-.152344 7.386719-3.636719 7.234375-7.785156-.152344-4.144532-3.632812-7.382813-7.785156-7.234376-17.703125.648438-33.410156 6.324219-46.851562 16.875l-7.59375-17.339843c-8.328126-19.023438.324218-41.160157 19.347656-49.492188 11.699218-3.753906 25.476562-16.054687 45.882812-8.078125 19.867188 7.765625 22.304688 25.925782 26.601563 33.308594 1.664062 3.800781 6.097656 5.535156 9.898437 3.871094 3.800782-1.664063 5.53125-6.097656 3.867188-9.898438l-5.863282-13.386718c-11.660156-26.632813-42.648437-38.75-69.285156-27.085938-9.28125 5.457031-34.261718 9.011719-45.023437 36.535156-5.113281 13.089844-4.828125 27.382813.808593 40.253906l46.957032 107.21875c-7.792969.863282-13.761719 7.417969-13.761719 15.347657v124.601562c0 4.148438 3.363281 7.511719 7.515625 7.511719 4.148438 0 7.511719-3.363281 7.511719-7.511719.34375-131.476562-.644531-125.511719.644531-124.976562 12.332031 5.175781 17.660156 24.546875 41.9375 24.546875 30.78125 0 31.015625-31.472656 55.546875-25.421875 1.679687.945312 3.925781-.542969 14.171875 10.097656 6.574219 6.828125 14.75 15.324219 30.472656 15.324219 15.71875 0 23.898438-8.496094 30.46875-15.324219 6.132813-6.367187 10.554688-10.726563 19.625-10.726563 20.476563 0 22.558594 28.050782 52.964844 25.953126 21.125-1.460938 27.058594-18.625 38.203125-24.027344 2.359375-1.140625 1.523437-21.203125 1.523437 270.839844 0 12.292968-10 22.292968-22.292968 22.292968h-240.96875c-12.292969 0-22.292969-10-22.292969-22.292968v-118.230469c0-4.152344-3.367187-7.515625-7.515625-7.515625s-7.515625 3.363281-7.515625 7.515625v118.230469c0 20.578124 16.742187 37.320312 37.324219 37.320312h240.96875c20.578125 0 37.320312-16.742188 37.320312-37.320312v-270.886719c0-6.285157-3.800781-12.046875-9.882812-14.398438zm-37.507813-62.566406c8.972657 0 12.617188 6.800781 15.9375 9.476563-5.121093 5.082031-4.761719 4.832031-5.835937 5.75-6.226563 5.121093-14.570313 4.648437-20.039063.152343-1.035156-.855469-1.253906-1.183593-6.007812-5.902343l.070312-.070313c3.304688-2.65625 6.886719-9.40625 15.875-9.40625zm-64.925781-47.554687c12.707031 0 26.847656 21.902343 32.882812 43.351562-.101562.359375-.210937.71875-.304687 1.074219-15.382813 1.820312-29.339844 9.238281-39.421875 20.5625-6.148438-11.90625-14.363281-22.390625-24.0625-27.875 6.726562-19.164063 19.214844-37.113281 30.90625-37.113281zm-42.140625 48.574218c17.542969 4.898438 32.910156 42.554688 32.410156 61.882813-16.707031 7.339843-19.121093 23.203125-35.765625 23.203125-14.054687 0-17.402344-10.816406-28.941406-19.253906-3.796875-2.777344-6.5-3.769532-6.808594-3.945313-.554687-21.097656 19.050782-67.484375 39.105469-61.886719zm96.839844 85.085938c-20.257813 0-21.414063-25.59375-49.402344-26.042969-.320313-8.765625-2.550781-18.367187-5.386719-26.703125 7.054688-10.972656 18.175782-18.527344 30.941406-21.011719.191407 7.519531 1.742188 12.800781 1.898438 13.3125 1.863281 6.109375 9.996094 7.179688 13.449219 1.921875 9.328125 7.210938 21.796875 8.296875 32.089843 3.320313 7.222657 9.808593 10.273438 21.808593 8.902344 33.621093-13.445312 7.660157-17.402344 21.582032-32.492187 21.582032zm0 0"/></svg>