<svg xmlns="http://www.w3.org/2000/svg" xmlns:xlink="http://www.w3.org/1999/xlink" version="1.1" x="0px" y="0px" viewBox="0 0 90 112.5" style="enable-background:new 0 0 90 90;" xml:space="preserve"><g><path d="M77.968,34.045C76.815,17.947,63.794,5.039,47.679,4.019c-9.087-0.576-17.733,2.525-24.343,8.729   c-6.517,6.118-10.255,14.752-10.255,23.69c0,10.493,5.102,20.386,13.648,26.463c2.738,1.947,5.011,4.466,6.755,7.488l7.102,12.309   c0.286,0.495,0.641,0.927,1.041,1.301H36.5c-0.829,0-1.5,0.671-1.5,1.5s0.671,1.5,1.5,1.5h18c0.828,0,1.5-0.671,1.5-1.5   S55.328,84,54.5,84h-5.265c0.4-0.374,0.754-0.805,1.04-1.299L57.2,70.707c1.813-3.14,4.085-5.66,6.751-7.49   C73.563,56.619,78.803,45.714,77.968,34.045z M62.254,60.743c-3.038,2.085-5.612,4.933-7.651,8.464l-6.926,11.994   c-0.469,0.812-1.309,1.296-2.246,1.296h0c-0.938,0-1.777-0.485-2.246-1.297l-7.102-12.309c-1.961-3.398-4.523-6.236-7.615-8.435   c-7.756-5.516-12.387-14.494-12.387-24.018c0-8.232,3.306-15.869,9.308-21.503c5.526-5.188,12.622-7.983,20.159-7.983   c0.644,0,1.292,0.021,1.941,0.062c14.624,0.925,26.44,12.639,27.486,27.246C75.733,44.854,70.978,54.754,62.254,60.743z"/><path d="M45.5,10C30.888,10,19,21.888,19,36.5S30.888,63,45.5,63S72,51.112,72,36.5S60.112,10,45.5,10z M45.5,60   C32.542,60,22,49.458,22,36.5S32.542,13,45.5,13S69,23.542,69,36.5S58.458,60,45.5,60z"/><path d="M59.676,34.018l-3.853-7.224C55.562,26.305,55.054,26,54.5,26h-18c-0.554,0-1.063,0.305-1.324,0.794l-3.853,7.224   C29.477,34.112,28,35.631,28,37.5v6c0,1.391,0.822,2.585,2,3.149V49.5c0,1.378,1.122,2.5,2.5,2.5h5c1.378,0,2.5-1.122,2.5-2.5V47   h10v2.5c0,1.378,1.121,2.5,2.5,2.5h5c1.379,0,2.5-1.122,2.5-2.5v-2.551c1.692-0.245,3-1.691,3-3.449v-6   C63,35.631,61.523,34.112,59.676,34.018z M37.4,29h16.2l2.667,5H34.734L37.4,29z M37,49h-4v-2h4V49z M53,49v-2h4v2H53z M60,43.5   c0,0.276-0.225,0.5-0.5,0.5h-28c-0.276,0-0.5-0.224-0.5-0.5v-6c0-0.276,0.224-0.5,0.5-0.5h28c0.275,0,0.5,0.224,0.5,0.5V43.5z"/><circle cx="35.5" cy="40.5" r="2.5"/><circle cx="55.5" cy="40.5" r="2.5"/><path d="M48.5,39h-6c-0.829,0-1.5,0.671-1.5,1.5s0.671,1.5,1.5,1.5h6c0.828,0,1.5-0.671,1.5-1.5S49.328,39,48.5,39z"/><path d="M34.431,24.57L45.5,19.824l11.069,4.746c0.192,0.083,0.393,0.122,0.59,0.122c0.582,0,1.136-0.341,1.38-0.909   c0.326-0.762-0.026-1.644-0.788-1.97L45.5,16.559l-12.251,5.254c-0.761,0.326-1.114,1.208-0.787,1.97   C32.788,24.544,33.671,24.899,34.431,24.57z"/></g><text x="0" y="105" fill="#000000" font-size="5px" font-weight="bold" font-family="'Helvetica Neue', Helvetica, Arial-Unicode, Arial, Sans-serif">Created by Rasama studio</text><text x="0" y="110" fill="#000000" font-size="5px" font-weight="bold" font-family="'Helvetica Neue', Helvetica, Arial-Unicode, Arial, Sans-serif">from the Noun Project</text></svg>