<svg id="Layer_1" enable-background="new 0 0 512.011 512.011" height="512" viewBox="0 0 512.011 512.011" width="512" xmlns="http://www.w3.org/2000/svg"><g><g clip-rule="evenodd" fill-rule="evenodd"><path d="m95.365 127.064 28.978 27.85c8.815-11.481 19.095-21.761 30.578-30.573l-27.852-28.98-27.817-28.944-47.261-49.175c-9.363-9.742-25.189-9.554-34.744.001-9.554 9.554-9.742 25.38-.001 34.743l49.175 47.261z" fill="#ffda8f"/><path d="m50.011 256.005c0-48.809 16.983-93.647 45.354-128.941l-28.943-27.817c-35.234 42.563-56.411 97.187-56.411 156.758 0 135.862 110.138 246 246 246s246-110.138 246-246-110.138-246-246-246c-59.571 0-114.194 21.178-156.758 56.411l27.817 28.943c35.298-28.369 80.133-45.355 128.942-45.355 113.771 0 206 92.229 206 206s-92.23 206-206 206-206.001-92.228-206.001-205.999z" fill="#fff"/><path d="m95.365 127.064c-28.371 35.294-45.354 80.132-45.354 128.941 0 113.771 92.229 206 206 206s206-92.229 206-206-92.23-206-206-206c-48.809 0-93.644 16.986-128.942 45.355l27.852 28.98c-11.483 8.813-21.763 19.092-30.576 30.576zm160.092 87.16c-12.426 0-22.5-10.074-22.5-22.5s10.074-22.5 22.5-22.5 22.5 10.074 22.5 22.5-10.074 22.5-22.5 22.5zm-123.031 74.377c0-12.426 10.074-22.5 22.5-22.5s22.5 10.074 22.5 22.5-10.074 22.5-22.5 22.5-22.5-10.074-22.5-22.5zm134.25 36c12.426 0 22.5 10.074 22.5 22.5s-10.074 22.5-22.5 22.5-22.5-10.074-22.5-22.5 10.074-22.5 22.5-22.5zm86.625-98.625c0-12.426 10.074-22.5 22.5-22.5s22.5 10.074 22.5 22.5-10.074 22.5-22.5 22.5-22.5-10.074-22.5-22.5z" fill="#ffbe90"/><g fill="#c68a65"><circle cx="255.457" cy="191.724" r="22.5"/><circle cx="154.926" cy="288.601" r="22.5"/><circle cx="266.676" cy="347.101" r="22.5"/><circle cx="375.801" cy="225.976" r="22.5"/></g></g><g><path d="m503.249 107.762c5.65-5.65 8.762-13.184 8.762-21.213.001-8.029-3.111-15.563-8.762-21.214l-56.569-56.568c-5.651-5.65-13.185-8.763-21.214-8.763-8.028 0-15.562 3.112-21.213 8.763l-23.545 23.545c-37.687-21.083-80.328-32.306-124.697-32.306-56.328 0-111.338 18.745-155.854 52.921l-40.956-42.615c-6.299-6.553-14.848-10.213-24.072-10.304-9.327-.064-18.401 3.612-24.953 10.164-6.551 6.551-10.256 15.646-10.163 24.952.091 9.224 3.751 17.772 10.305 24.072l42.614 40.956c-34.176 44.514-52.921 99.525-52.921 155.854 0 44.37 11.224 87.01 32.307 124.698l-23.546 23.545c-11.696 11.697-11.697 30.729 0 42.427l56.569 56.568c5.65 5.65 13.184 8.763 21.213 8.763s15.563-3.112 21.213-8.763l23.545-23.545c37.688 21.083 80.328 32.307 124.698 32.307 68.38 0 132.667-26.629 181.019-74.98 48.353-48.353 74.981-112.64 74.981-181.02 0-44.37-11.224-87.01-32.307-124.698zm-84.853-84.852c1.873-1.873 4.384-2.905 7.07-2.905 2.688 0 5.198 1.032 7.071 2.905l56.569 56.568c1.873 1.873 2.904 4.384 2.904 7.071s-1.031 5.197-2.904 7.07l-20.154 20.154c-9.252-13.79-19.916-26.781-31.923-38.788-12.006-12.006-24.997-22.67-38.788-31.922zm-398.384 12.016c-.039-3.968 1.531-7.835 4.308-10.611 2.742-2.743 6.549-4.308 10.466-4.308.049 0 .097 0 .146.001 3.808.037 7.306 1.517 9.851 4.164l95.439 99.305c-5.948 5.198-11.541 10.792-16.739 16.739l-99.306-95.44c-2.648-2.545-4.128-6.044-4.165-9.85zm73.613 454.175c-1.873 1.873-4.384 2.905-7.071 2.905s-5.198-1.032-7.071-2.905l-56.569-56.568c-3.899-3.898-3.899-10.243 0-14.142l20.154-20.154c9.252 13.79 19.916 26.781 31.922 38.788 12.007 12.006 24.998 22.67 38.788 31.922zm162.386 2.905c-130.131 0-236-105.869-236-236 0-51.186 16.78-101.194 47.43-141.91l14.541 13.975c-27.481 37.24-41.97 81.296-41.97 127.935 0 49.456 17.144 97.791 48.273 136.103 30.679 37.757 73.589 64.313 120.826 74.774.728.161 1.455.238 2.171.238 4.587 0 8.721-3.176 9.754-7.84 1.194-5.392-2.209-10.731-7.601-11.926-88.9-19.688-153.424-100.163-153.424-191.35 0-41.432 12.602-80.616 36.527-113.946l14.608 14.04c-2.666 3.864-5.2 7.826-7.555 11.906-2.762 4.783-1.123 10.899 3.66 13.66 1.575.909 3.294 1.342 4.991 1.342 3.456 0 6.817-1.794 8.669-5.002 13.673-23.682 33.417-43.427 57.1-57.1 4.783-2.761 6.422-8.877 3.66-13.66-2.761-4.782-8.878-6.423-13.66-3.66-4.08 2.355-8.042 4.889-11.906 7.555l-14.04-14.608c33.333-23.926 72.512-36.527 113.946-36.527 108.075 0 196 87.925 196 196 0 91.189-64.527 171.664-153.431 191.352-5.393 1.194-8.796 6.533-7.602 11.926 1.033 4.664 5.167 7.84 9.754 7.84.716 0 1.443-.077 2.172-.238 47.238-10.461 90.15-37.016 120.831-74.773 31.131-38.313 48.275-86.648 48.275-136.105 0-57.695-22.468-111.938-63.265-152.735s-95.04-63.265-152.735-63.265c-46.641 0-90.693 14.487-127.936 41.97l-13.974-14.542c40.718-30.65 90.725-47.429 141.91-47.429 130.131 0 236 105.869 236 236s-105.868 236-235.999 236z"/><path d="m375.801 258.476c17.921 0 32.5-14.58 32.5-32.501s-14.579-32.5-32.5-32.5-32.5 14.579-32.5 32.5 14.579 32.501 32.5 32.501zm0-45.001c6.893 0 12.5 5.607 12.5 12.5s-5.607 12.501-12.5 12.501-12.5-5.608-12.5-12.501 5.608-12.5 12.5-12.5z"/><path d="m266.676 314.601c-17.92 0-32.5 14.579-32.5 32.5s14.58 32.5 32.5 32.5c17.921 0 32.5-14.579 32.5-32.5s-14.579-32.5-32.5-32.5zm0 45c-6.893 0-12.5-5.607-12.5-12.5s5.607-12.5 12.5-12.5 12.5 5.607 12.5 12.5-5.607 12.5-12.5 12.5z"/><path d="m287.956 191.724c0-17.921-14.579-32.5-32.5-32.5s-32.5 14.579-32.5 32.5 14.58 32.5 32.5 32.5c17.921 0 32.5-14.579 32.5-32.5zm-45 0c0-6.893 5.608-12.5 12.5-12.5s12.5 5.607 12.5 12.5-5.607 12.5-12.5 12.5c-6.892 0-12.5-5.607-12.5-12.5z"/><path d="m187.426 288.601c0-17.921-14.58-32.5-32.5-32.5s-32.5 14.579-32.5 32.5 14.58 32.5 32.5 32.5 32.5-14.579 32.5-32.5zm-32.5 12.5c-6.893 0-12.5-5.607-12.5-12.5s5.607-12.5 12.5-12.5 12.5 5.607 12.5 12.5-5.607 12.5-12.5 12.5z"/><path d="m296.676 117.101c5.522 0 10-4.478 10-10s-4.478-10-10-10h-.007c-5.522 0-9.997 4.478-9.997 10s4.482 10 10.004 10z"/><path d="m170.676 207.101c5.523 0 10-4.478 10-10s-4.477-10-10-10h-.007c-5.523 0-9.997 4.478-9.997 10s4.481 10 10.004 10z"/><path d="m242.676 277.601c5.523 0 10-4.478 10-10s-4.477-10-10-10h-.007c-5.523 0-9.997 4.478-9.997 10s4.481 10 10.004 10z"/><path d="m364.176 301.101h-.007c-5.522 0-9.997 4.478-9.997 10s4.481 10 10.004 10 10-4.478 10-10-4.477-10-10-10z"/><path d="m182.677 364.101h-.007c-5.523 0-9.997 4.478-9.997 10s4.481 10 10.004 10 10-4.478 10-10-4.477-10-10-10z"/><path d="m256.011 452.006h-.007c-5.523 0-9.996 4.478-9.996 10s4.48 10 10.003 10c5.522 0 10-4.478 10-10s-4.477-10-10-10z"/></g></g></svg>