<svg xmlns="http://www.w3.org/2000/svg" viewBox="0 0 512 640" x="0px" y="0px"><title>cleaner-road-clean-cleaning-street</title><g><path d="M457.843,364.229a8,8,0,1,0-15.18,5.06l5.747,17.241a8,8,0,0,0,15.18-5.06Z"/><path d="M445.492,352.475a8,8,0,0,0,5.06-10.121L449.3,338.6a86.534,86.534,0,0,0-4.107-10.128,8,8,0,1,0-14.416,6.943,70.1,70.1,0,0,1,3.344,8.245l1.253,3.759a8,8,0,0,0,10.12,5.06Z"/><path d="M429.939,306.469a86.183,86.183,0,0,0-9.851-8.822,8,8,0,0,0-9.725,12.706,70.1,70.1,0,0,1,8.016,7.178,8,8,0,1,0,11.56-11.062Z"/><path d="M494.656,323.562,487.213,312.4a8,8,0,0,0-13.313,8.875l7.444,11.166a8,8,0,0,0,13.312-8.876Z"/><path d="M459.291,281.07a8,8,0,1,0-10.246,12.289c2.751,2.293,5.436,4.735,7.982,7.256a8,8,0,1,0,11.258-11.369C465.417,286.4,462.391,283.654,459.291,281.07Z"/><path d="M418.861,274.672c3.865,1.7,7.687,3.609,11.363,5.684a8,8,0,0,0,7.867-13.931c-4.14-2.338-8.445-4.492-12.8-6.4a8,8,0,0,0-6.432,14.651Z"/><circle cx="240" cy="360" r="24"/><path d="M179.98,245.758a12.947,12.947,0,0,1-10.222,1.185l-9.818,5.275a23.828,23.828,0,0,1-.107,8.166l8.785,5.072a13,13,0,1,1-8,13.856l-8.8-5.08a24,24,0,0,1-7.581,4.392v10.143a13,13,0,1,1-16,0V278.624a24,24,0,0,1-7.58-4.392l-8.8,5.08A12.989,12.989,0,0,1,92.231,288.6l-8.344,4.483A63.966,63.966,0,0,0,195.708,233l-9.8,5.264A12.943,12.943,0,0,1,179.98,245.758Z"/><path d="M240,328V160H32V352h9.013a32,32,0,0,1,61.974,0H209.013A32.057,32.057,0,0,1,240,328Zm-104,8a80,80,0,1,1,80-80A80.091,80.091,0,0,1,136,336Z"/><path d="M92.5,266.242a12.961,12.961,0,0,1,9.92-1.282l10.083-5.417a23.792,23.792,0,0,1,.145-7.927l-8.785-5.072a13,13,0,1,1,8-13.856l8.8,5.079a24.012,24.012,0,0,1,7.58-4.391V223.233a13,13,0,1,1,16,0v10.143a24.017,24.017,0,0,1,7.581,4.391l8.8-5.079a12.976,12.976,0,0,1,19.393-9.417l8.1-4.353A63.966,63.966,0,0,0,76.292,279l10.381-5.577A12.936,12.936,0,0,1,92.5,266.242Z"/><circle cx="72" cy="360" r="24"/><path d="M336,232V180a20.023,20.023,0,0,0-20-20H288v52.687L307.313,232Z"/><path d="M336,312H304a8,8,0,0,1-8-8V272a8,8,0,0,1,8-8h32V248H304a8,8,0,0,1-5.657-2.343l-24-24A8,8,0,0,1,272,216V160H256V328h80Z"/><rect x="312" y="280" width="24" height="16"/><path d="M375.18,296.369a69.63,69.63,0,0,1,14.348,3.033,8,8,0,1,0,4.944-15.216,85.592,85.592,0,0,0-17.652-3.733,8,8,0,0,0-1.64,15.916Z"/><path d="M375.663,264.231a126.854,126.854,0,0,1,21.5,3.174,8,8,0,1,0,3.689-15.568,142.894,142.894,0,0,0-24.224-3.576,8,8,0,1,0-.969,15.97Z"/><path d="M398.948,360H400v-6.5a9.5,9.5,0,0,0-9.5-9.5H267.7l.043.074a30.159,30.159,0,0,1,3.676,11.3L272,360h9.052l-7.708,11.562a8,8,0,1,0,13.312,8.876L296,366.422V376a8,8,0,0,0,16,0v-9.578l9.344,14.016a8,8,0,0,0,13.312-8.876L326.948,360h26.1l-7.708,11.562a8,8,0,1,0,13.312,8.876L368,366.422V376a8,8,0,0,0,16,0v-9.578l9.344,14.016a8,8,0,0,0,13.312-8.876Z"/></g><text x="0" y="527" fill="#000000" font-size="5px" font-weight="bold" font-family="'Helvetica Neue', Helvetica, Arial-Unicode, Arial, Sans-serif">Created by supalerk laipawat</text><text x="0" y="532" fill="#000000" font-size="5px" font-weight="bold" font-family="'Helvetica Neue', Helvetica, Arial-Unicode, Arial, Sans-serif">from the Noun Project</text></svg>