<svg xmlns="http://www.w3.org/2000/svg" data-name="Layer 1" viewBox="0 0 64 80" x="0px" y="0px"><title>Auto insurance</title><path d="M50,25.62l4.64,2.47-5.48,4.3a8.37,8.37,0,0,1-2.23-.8l4.23-3.32-3.65-1.94,3.27-5.56-5.88,3-1.09-6.29-3.07,5.8L37.19,19.1,35.9,24.41c-.64-.31-1.28-.59-1.92-.85l1.8-8.91,4.59,5.43L44.66,12,46.23,21l9.18-4.66Z"/><path d="M13.26,41.21A5.41,5.41,0,1,0,19,47,5.42,5.42,0,0,0,13.26,41.21Zm0,8.55a3.17,3.17,0,1,1,3.5-3.5A3.19,3.19,0,0,1,13.27,49.76Z"/><path d="M47.85,41.21A5.41,5.41,0,1,0,53.6,47,5.43,5.43,0,0,0,47.85,41.21Zm0,8.55a3.17,3.17,0,1,1,3.5-3.5A3.18,3.18,0,0,1,47.86,49.76Z"/><path d="M63.44,43.82l-1-4.15a6,6,0,0,0-5.18-4.55L49.46,34a10.48,10.48,0,0,1-5.18-2.31L42.9,30.55l.47,1.31.26.72-.62.14L41.74,33l.78.61a1,1,0,0,1-.66,1.83H27a1,1,0,0,1-1-1V26.8a1,1,0,0,1,.82-1l.31,2.94,2.41-.3.7,2.93.31-3.76-1.77-.42.17-1a34.73,34.73,0,0,1,11.94,6.12l1-.46-2.14-3.24-.36-.54a33.87,33.87,0,0,0-11.71-4.86C18.32,21.44,9.18,27.75,4.57,29A3.51,3.51,0,0,0,2,32.43v6.16A2.33,2.33,0,0,0,.5,40.76v3.59A2.25,2.25,0,0,0,2.75,46.6h4c0-.15,0-.3,0-.45a6.91,6.91,0,0,1,13.8.45h9.94l.89-1.13-2.24-1.69,3.43-3.56L30.4,43.54l3.14,1.36-.7,1.7H41.3c0-.15,0-.3,0-.45a6.91,6.91,0,0,1,11.78-4.43,7,7,0,0,1,2,4.88h6.14A2.26,2.26,0,0,0,63.44,43.82Zm-36.54-7h2a.93.93,0,0,1,1,.9.92.92,0,0,1-.92.94h-2a.94.94,0,0,1-1-.91A.92.92,0,0,1,26.9,36.79ZM7.55,38.63h-2a.93.93,0,0,1-.94-.91.91.91,0,0,1,.91-.93h2a.94.94,0,0,1,.95.9A.92.92,0,0,1,7.55,38.63ZM5.67,35.45a1,1,0,0,1-1-1v-2a.9.9,0,0,1,.65-.85,38.45,38.45,0,0,0,4.91-2c3.43-1.55,7.58-3.43,11.92-3.94a1,1,0,0,1,1.16,1v7.72a1,1,0,0,1-1,1Z"/><text x="0" y="79" fill="#000000" font-size="5px" font-weight="bold" font-family="'Helvetica Neue', Helvetica, Arial-Unicode, Arial, Sans-serif">Created by SHAHAREA</text><text x="0" y="84" fill="#000000" font-size="5px" font-weight="bold" font-family="'Helvetica Neue', Helvetica, Arial-Unicode, Arial, Sans-serif">from the Noun Project</text></svg>