<svg xmlns="http://www.w3.org/2000/svg" data-name="Layer 1" viewBox="0 0 64 80" x="0px" y="0px"><path d="M43.746,19.547c-.123,.05-.251,.074-.376,.074-.395,0-.77-.236-.927-.625-.207-.512,.039-1.095,.551-1.302l1.308-.53c-.521-1.058-1.178-2.036-1.942-2.92l-.993,.994c-.195,.195-.451,.293-.707,.293s-.512-.098-.707-.293c-.391-.39-.391-1.023,0-1.414l.989-.99c-.814-.704-1.703-1.324-2.667-1.823l-.556,1.302c-.162,.38-.532,.608-.92,.608-.132,0-.265-.026-.393-.081-.508-.217-.744-.804-.527-1.312l.551-1.29c-1.09-.374-2.237-.616-3.43-.702v1.405c0,.552-.447,1-1,1s-1-.448-1-1v-1.405c-1.098,.08-2.159,.287-3.171,.612l.528,1.31c.206,.512-.041,1.095-.554,1.301-.122,.05-.249,.073-.374,.073-.396,0-.771-.237-.928-.626l-.528-1.309c-1.057,.52-2.034,1.175-2.916,1.938l.989,.99c.391,.391,.391,1.024,0,1.414-.195,.195-.451,.293-.707,.293s-.512-.098-.707-.293l-.993-.994c-.704,.814-1.31,1.712-1.809,2.676l1.292,.551c.508,.217,.744,.804,.527,1.312-.162,.38-.532,.608-.92,.608-.132,0-.265-.026-.393-.081l-1.292-.551c-.374,1.09-.626,2.236-.712,3.429h13.252l4.998-4.998c.391-.391,1.023-.391,1.414,0s.391,1.023,0,1.414l-3.584,3.583h11.252c-.08-1.098-.303-2.154-.627-3.165l-1.293,.524Z"/><rect x="29.956" y="50.663" width="4.088" height="9.337"/><path d="M33.245,30.056h-3.289v6.088h3.289c1.679,0,3.044-1.366,3.044-3.044s-1.365-3.044-3.044-3.044Z"/><path d="M32,4c-10.58,0-19.188,8.608-19.188,19.188,0,5.832,2.7,16.851,7.237,25.475h23.902c4.537-8.625,7.237-19.644,7.237-25.475,0-10.58-8.608-19.188-19.188-19.188Zm1.245,34.144h-3.289v4.245c0,.552-.447,1-1,1s-1-.448-1-1v-13.333c0-.552,.447-1,1-1h4.289c2.781,0,5.044,2.263,5.044,5.044s-2.263,5.044-5.044,5.044Zm13.457-13.956H17.298c-.553,0-1-.448-1-1,0-6.57,4.06-12.202,9.8-14.541,.014-.006,.023-.019,.038-.025,.02-.008,.041-.005,.061-.012,1.797-.718,3.752-1.125,5.803-1.125,6.57,0,12.203,4.06,14.541,9.8,.007,.014,.019,.023,.025,.038,.008,.021,.005,.042,.012,.063,.718,1.797,1.124,3.751,1.124,5.801,0,.552-.447,1-1,1Z"/><text x="0" y="79" fill="#000000" font-size="5px" font-weight="bold" font-family="'Helvetica Neue', Helvetica, Arial-Unicode, Arial, Sans-serif">Created by Serena</text><text x="0" y="84" fill="#000000" font-size="5px" font-weight="bold" font-family="'Helvetica Neue', Helvetica, Arial-Unicode, Arial, Sans-serif">from the Noun Project</text></svg>